<svg width="44" height="44" viewBox="0 0 44 44" fill="none" xmlns="http://www.w3.org/2000/svg">
<rect x="0.5" y="0.5" width="43" height="43" stroke="#E4DACC"/>
<g clip-path="url(#clip0_28_1448)">
<path d="M22.0033 17.3789C21.3967 17.3788 20.7961 17.4982 20.2357 17.7303C19.6753 17.9623 19.1662 18.3025 18.7373 18.7314C18.3084 19.1603 17.9682 19.6695 17.7361 20.2299C17.5041 20.7903 17.3847 21.3909 17.3848 21.9974C17.3847 22.6039 17.5041 23.2046 17.7361 23.7649C17.9682 24.3253 18.3084 24.8345 18.7373 25.2634C19.1662 25.6923 19.6753 26.0325 20.2357 26.2645C20.7961 26.4966 21.3967 26.616 22.0033 26.6159C22.6098 26.616 23.2104 26.4966 23.7708 26.2645C24.3312 26.0325 24.8404 25.6923 25.2693 25.2634C25.6981 24.8345 26.0383 24.3253 26.2704 23.7649C26.5025 23.2046 26.6219 22.6039 26.6218 21.9974C26.6219 21.3909 26.5025 20.7903 26.2704 20.2299C26.0383 19.6695 25.6981 19.1603 25.2693 18.7314C24.8404 18.3025 24.3312 17.9623 23.7708 17.7303C23.2104 17.4982 22.6098 17.3788 22.0033 17.3789ZM22.0033 24.9952C21.4106 24.995 20.8312 24.8191 20.3385 24.4898C19.8458 24.1604 19.4617 23.6923 19.235 23.1447C19.0083 22.5971 18.949 21.9946 19.0646 21.4133C19.1803 20.832 19.4657 20.298 19.8848 19.879C20.3039 19.4599 20.8379 19.1744 21.4191 19.0588C22.0004 18.9431 22.603 19.0024 23.1506 19.2291C23.6982 19.4559 24.1662 19.8399 24.4956 20.3326C24.825 20.8254 25.0009 21.4047 25.001 21.9974C25.0012 22.3911 24.9238 22.781 24.7732 23.1448C24.6226 23.5086 24.4018 23.8392 24.1234 24.1176C23.845 24.396 23.5145 24.6168 23.1507 24.7674C22.7869 24.9179 22.397 24.9954 22.0033 24.9952Z" fill="#F6F4F1"/>
<path d="M25.7112 13.0565C24.0552 12.9793 19.9534 12.983 18.2959 13.0565C16.8394 13.1248 15.5547 13.4765 14.5189 14.5123C12.7879 16.2433 13.0092 18.5758 13.0092 21.9965C13.0092 25.4975 12.8142 27.776 14.5189 29.4808C16.2567 31.2178 18.6229 30.9905 22.0032 30.9905C25.4712 30.9905 26.6682 30.9928 27.8944 30.518C29.5617 29.8708 30.8202 28.3805 30.9432 25.7038C31.0212 24.047 31.0167 19.946 30.9432 18.2885C30.7947 15.1288 29.0989 13.2125 25.7112 13.0565ZM28.3324 28.3355C27.1977 29.4703 25.6234 29.369 21.9814 29.369C18.2314 29.369 16.7277 29.4245 15.6304 28.3243C14.3667 27.0665 14.5954 25.0468 14.5954 21.9845C14.5954 17.8408 14.1702 14.8565 18.3289 14.6435C19.2844 14.6098 19.5657 14.5985 21.9709 14.5985L22.0047 14.621C26.0014 14.621 29.1372 14.2025 29.3254 18.3605C29.3682 19.3093 29.3779 19.5943 29.3779 21.9958C29.3772 25.7023 29.4477 27.215 28.3324 28.3355Z" fill="#F6F4F1"/>
<path d="M26.8039 18.2757C27.3999 18.2757 27.8831 17.7925 27.8831 17.1964C27.8831 16.6004 27.3999 16.1172 26.8039 16.1172C26.2078 16.1172 25.7246 16.6004 25.7246 17.1964C25.7246 17.7925 26.2078 18.2757 26.8039 18.2757Z" fill="#F6F4F1"/>
</g>
<defs>
<clipPath id="clip0_28_1448">
<rect width="18" height="18" fill="white" transform="translate(13 13)"/>
</clipPath>
</defs>
</svg>
