<svg width="44" height="44" viewBox="0 0 44 44" fill="none" xmlns="http://www.w3.org/2000/svg">
<rect x="0.5" y="0.5" width="43" height="43" stroke="#E4DACC"/>
<g clip-path="url(#clip0_28_1455)">
<path fill-rule="evenodd" clip-rule="evenodd" d="M27.9099 16.0149C26.3311 14.4343 24.2315 13.5634 21.9947 13.5625C17.3856 13.5625 13.6345 17.3135 13.6326 21.9239C13.632 23.3977 14.017 24.8363 14.7488 26.1044L13.5625 30.4375L17.9954 29.2746C19.2168 29.9409 20.5919 30.2921 21.9913 30.2925H21.9949C26.6034 30.2925 30.355 26.5411 30.3567 21.9306C30.3577 19.6962 29.4887 17.5954 27.9099 16.0149ZM21.9947 28.8802H21.9918C20.7448 28.8797 19.5217 28.5446 18.4544 27.9115L18.2008 27.7608L15.5702 28.4509L16.2723 25.8861L16.107 25.6232C15.4113 24.5166 15.0439 23.2376 15.0445 21.9244C15.0459 18.0924 18.1639 14.9748 21.9975 14.9748C23.8539 14.9754 25.599 15.6992 26.9112 17.013C28.2233 18.3267 28.9456 20.0729 28.945 21.93C28.9433 25.7623 25.8256 28.8802 21.9947 28.8802ZM25.807 23.6749C25.5982 23.5703 24.5709 23.065 24.3793 22.9951C24.1879 22.9254 24.0485 22.8907 23.9093 23.0998C23.77 23.3089 23.3696 23.7795 23.2477 23.9189C23.1257 24.0584 23.004 24.0759 22.795 23.9712C22.586 23.8667 21.9128 23.646 21.1147 22.9342C20.4936 22.3801 20.0743 21.6959 19.9524 21.4869C19.8307 21.2776 19.9513 21.1754 20.0441 21.0604C20.2702 20.7796 20.4967 20.4851 20.5664 20.3457C20.6361 20.2063 20.6012 20.0842 20.5489 19.9797C20.4967 19.8751 20.0789 18.8467 19.9048 18.4282C19.7351 18.021 19.563 18.076 19.4346 18.0696C19.3129 18.0635 19.1735 18.0623 19.0342 18.0623C18.8949 18.0623 18.6685 18.1145 18.477 18.3238C18.2855 18.533 17.7458 19.0384 17.7458 20.0668C17.7458 21.0953 18.4945 22.0887 18.5989 22.2282C18.7033 22.3677 20.0723 24.4781 22.1682 25.383C22.6667 25.5985 23.0558 25.7269 23.3593 25.8232C23.8599 25.9822 24.3152 25.9598 24.6753 25.906C25.0768 25.846 25.9114 25.4005 26.0856 24.9125C26.2597 24.4244 26.2597 24.0061 26.2074 23.9189C26.1553 23.8318 26.0159 23.7795 25.807 23.6749Z" fill="#F6F4F1"/>
</g>
<defs>
<clipPath id="clip0_28_1455">
<rect width="18" height="18" fill="white" transform="translate(13 13)"/>
</clipPath>
</defs>
</svg>
