<svg width="69" height="30" viewBox="0 0 69 30" fill="none" xmlns="http://www.w3.org/2000/svg">
<path d="M63.6615 2.5105C61.6984 3.43487 59.5149 3.75 57.3815 3.42437L50.8611 2.42647C47.5458 1.92227 44.1604 2.59454 41.2558 4.32773L34.505 8.36135L27.7542 4.32773C24.8496 2.58403 21.4642 1.91176 18.1489 2.42647L11.6285 3.42437C9.49514 3.75 7.32167 3.42437 5.34853 2.5105L0 0L9.02439 24.9475L25.741 30L34.495 25.4727L43.249 30L59.9656 24.9475L69 0L63.6615 2.5105ZM18.6297 19.0231C18.6297 19.0231 14.433 17.6996 11.8489 11.9118C11.8489 11.9118 20.9835 9.26471 24.2787 11.9118C24.2787 11.9118 26.993 13.5819 29.1064 18.6765C29.1064 18.6765 22.4358 20.0525 18.6297 19.0231ZM50.3703 19.0231C46.5542 20.063 39.8936 18.6765 39.8936 18.6765C42.007 13.5819 44.7213 11.9118 44.7213 11.9118C48.0166 9.26471 57.1511 11.9118 57.1511 11.9118C54.567 17.6996 50.3703 19.0231 50.3703 19.0231Z" fill="#F6F4F1"/>
</svg>
